# Blender 3.4.1
# www.blender.org
mtllib gsg-other-building-inner-shade.mtl
o other-building-inner-shade
v -63.219616 -0.300000 -106.346451
v -63.219616 33.407799 -106.346451
v -62.265034 -0.300000 -95.964371
v -62.265034 33.407799 -95.964371
v -53.156727 -0.300000 -96.522682
v -53.358822 33.407799 -96.505013
v -52.603790 -0.300000 -90.198303
v -52.603790 22.776608 -90.198303
v -7.975006 -0.300000 -94.100189
v -7.975006 22.776608 -94.100189
v -9.131458 -0.300000 -91.247421
v -9.131458 22.776608 -91.247421
v -8.850372 -0.300000 -88.032425
v -8.850372 22.776608 -88.032425
v -6.308885 22.776608 -85.950523
v -6.308885 -0.300000 -85.950523
v -3.320481 22.776608 -86.211800
v -3.320481 -0.300000 -86.211800
v -1.179523 22.776608 -88.343407
v -1.179523 -0.300000 -88.343407
v -1.509186 22.776608 -92.114014
v -1.509186 -0.300000 -92.114014
v -53.168762 30.377079 -96.660347
v -8.539981 30.377079 -100.562225
v -53.638988 32.368496 -99.709480
v -8.502920 32.368496 -103.655716
v -53.156727 30.379490 -96.522682
v -53.551945 33.407799 -98.713882
v -53.551945 32.950886 -98.713882
v -7.975006 29.929611 -94.100189
v -9.131458 29.929611 -91.247421
v -8.850372 29.929611 -88.032425
v -6.308885 29.929611 -85.950523
v -3.320481 29.929611 -86.211800
v -1.179523 29.929611 -88.343407
v -1.509186 29.929611 -92.114014
v -5.078578 32.736794 -89.686150
vn -0.9958 -0.0000 0.0916
vn 0.0612 -0.0001 0.9981
vn -0.9962 -0.0000 0.0871
vn 0.0871 -0.0000 0.9962
vn -0.9267 -0.0000 -0.3757
vn -0.6337 -0.0000 0.7736
vn 0.7056 -0.0000 0.7087
vn 0.9962 -0.0000 -0.0871
vn 0.0662 0.6492 0.7577
vn 0.0473 0.8396 0.5411
vn 0.9934 0.0581 -0.0989
vn 0.4263 0.7969 0.4281
vn -0.3850 0.7942 0.4700
vn -0.5031 0.8398 -0.2040
vn 0.5952 0.8019 -0.0520
vn 0.0534 0.7898 0.6111
vn -0.5818 0.8117 0.0509
vt 0.000000 0.000000
vt 0.000000 0.000000
vt 0.000000 0.000000
vt 0.000000 0.000000
vt 0.000000 0.000000
vt 0.000000 0.000000
vt 0.000000 0.000000
vt 0.000000 0.000000
vt 0.000000 0.000000
vt 0.000000 0.000000
vt 0.000000 0.000000
vt 0.000000 0.000000
vt 0.000000 0.000000
vt 0.000000 0.000000
vt 0.000000 0.000000
vt 0.000000 0.000000
vt 0.000000 0.000000
vt 0.000000 0.000000
vt 0.000000 0.000000
vt 0.000000 0.000000
vt 0.000000 0.000000
vt 0.000000 0.000000
vt 0.000000 0.000000
vt 0.000000 0.000000
vt 0.000000 0.000000
vt 0.000000 0.000000
vt 0.000000 0.000000
vt 0.000000 0.000000
vt 0.000000 0.000000
vt 0.000000 0.000000
vt 0.000000 0.000000
vt 0.000000 0.000000
vt 0.000000 0.000000
vt 0.000000 0.000000
vt 0.000000 0.000000
vt 0.000000 0.000000
vt 0.000000 0.000000
s 0
usemtl OSM/Building
f 1/1/1 3/3/1 4/4/1 2/2/1
f 3/3/2 5/5/2 27/27/2 6/6/2 4/4/2
f 5/5/3 7/7/3 8/8/3 27/27/3
f 7/7/4 9/9/4 10/10/4 8/8/4
f 9/9/5 11/11/5 12/12/5 10/10/5
f 11/11/3 13/13/3 14/14/3 12/12/3
f 13/13/6 16/16/6 15/15/6 14/14/6
f 16/16/4 18/18/4 17/17/4 15/15/4
f 18/18/7 20/20/7 19/19/7 17/17/7
f 20/20/8 22/22/8 21/21/8 19/19/8
f 10/10/9 24/24/9 23/23/9 8/8/9
f 24/24/10 26/26/10 25/25/10 23/23/10
f 27/27/11 29/29/11 28/28/11 6/6/11
f 15/15/6 33/33/6 32/32/6 14/14/6
f 21/21/8 36/36/8 35/35/8 19/19/8
f 12/12/5 31/31/5 30/30/5 10/10/5
f 17/17/4 34/34/4 33/33/4 15/15/4
f 14/14/3 32/32/3 31/31/3 12/12/3
f 19/19/7 35/35/7 34/34/7 17/17/7
f 35/35/12 37/37/12 34/34/12
f 33/33/13 37/37/13 32/32/13
f 31/31/14 37/37/14 30/30/14
f 36/36/15 37/37/15 35/35/15
f 34/34/16 37/37/16 33/33/16
f 32/32/17 37/37/17 31/31/17
